<?xml version="1.0" encoding="UTF-8" standalone="no"?>
<!-- Created with Inkscape (http://www.inkscape.org/) -->

<svg
   version="1.1"
   id="svg2"
   width="80mm"
   height="25mm"
   viewBox="0 0 302.36221 94.488187"
   sodipodi:docname="logo-unistuttgart-deutsch+ias_80x20.svg"
   inkscape:version="1.2.2 (b0a8486541, 2022-12-01)"
   xmlns:inkscape="http://www.inkscape.org/namespaces/inkscape"
   xmlns:sodipodi="http://sodipodi.sourceforge.net/DTD/sodipodi-0.dtd"
   xmlns="http://www.w3.org/2000/svg"
   xmlns:svg="http://www.w3.org/2000/svg">
  <defs
     id="defs6" />
  <sodipodi:namedview
     id="namedview4"
     pagecolor="#ffffff"
     bordercolor="#666666"
     borderopacity="1.0"
     inkscape:showpageshadow="2"
     inkscape:pageopacity="0.0"
     inkscape:pagecheckerboard="0"
     inkscape:deskcolor="#d1d1d1"
     showgrid="false"
     inkscape:zoom="6.2398891"
     inkscape:cx="112.02122"
     inkscape:cy="24.920315"
     inkscape:window-width="2541"
     inkscape:window-height="2096"
     inkscape:window-x="2"
     inkscape:window-y="59"
     inkscape:window-maximized="1"
     inkscape:current-layer="g10"
     inkscape:document-units="mm">
    <inkscape:page
       x="0"
       y="0"
       id="page8"
       width="302.36221"
       height="94.48819" />
  </sodipodi:namedview>
  <g
     id="g10"
     inkscape:groupmode="layer"
     inkscape:label="Page 1"
     transform="matrix(1.3333333,0,0,-1.3333333,0,49.134399)">
    <g
       id="g12"
       transform="scale(0.1)">
      <path
         d="m 184.039,194.031 c -5.519,0 -9.969,-4.476 -9.969,-9.968 0,-5.497 4.45,-9.969 9.969,-9.969 5.508,0 9.969,4.472 9.969,9.969 0,5.492 -4.461,9.968 -9.969,9.968"
         style="fill:#34373e;fill-opacity:1;fill-rule:nonzero;stroke:none"
         id="path14" />
      <path
         d="m 209.195,199.578 c 0,5.512 -4.484,9.992 -9.992,9.992 -5.504,0 -9.961,-4.48 -9.961,-9.992 0,-5.496 4.457,-9.961 9.961,-9.961 5.508,0 9.992,4.465 9.992,9.961"
         style="fill:#34373e;fill-opacity:1;fill-rule:nonzero;stroke:none"
         id="path16" />
      <path
         d="m 209.195,168.527 c 0,5.496 -4.484,9.981 -9.992,9.981 -5.504,0 -9.961,-4.485 -9.961,-9.981 0,-5.507 4.457,-9.98 9.961,-9.98 5.508,0 9.992,4.473 9.992,9.98"
         style="fill:#34373e;fill-opacity:1;fill-rule:nonzero;stroke:none"
         id="path18" />
      <path
         d="m 216.395,194.523 c -5.493,0 -9.957,-4.464 -9.957,-9.976 0,-5.492 4.464,-9.973 9.957,-9.973 5.515,0 9.976,4.481 9.976,9.973 0,5.512 -4.461,9.976 -9.976,9.976"
         style="fill:#34373e;fill-opacity:1;fill-rule:nonzero;stroke:none"
         id="path20" />
      <path
         d="m 235.16,210.191 c -5.496,0 -9.969,-4.476 -9.969,-9.976 0,-5.512 4.473,-9.965 9.969,-9.965 5.504,0 9.985,4.453 9.985,9.965 0,5.5 -4.481,9.976 -9.985,9.976"
         style="fill:#34373e;fill-opacity:1;fill-rule:nonzero;stroke:none"
         id="path22" />
      <path
         d="m 235.004,178.176 c -5.477,0 -9.969,-4.492 -9.969,-10 0,-5.488 4.492,-9.961 9.969,-9.961 5.508,0 9.992,4.473 9.992,9.961 0,5.508 -4.484,10 -9.992,10"
         style="fill:#34373e;fill-opacity:1;fill-rule:nonzero;stroke:none"
         id="path24" />
      <path
         d="m 215.707,142.695 c 5.52,0 9.992,4.493 9.992,9.973 0,5.496 -4.472,9.98 -9.992,9.98 -5.492,0 -9.949,-4.484 -9.949,-9.98 0,-5.48 4.457,-9.973 9.949,-9.973"
         style="fill:#34373e;fill-opacity:1;fill-rule:nonzero;stroke:none"
         id="path26" />
      <path
         d="m 210.141,133.34 c 0,5.519 -4.473,9.98 -9.989,9.98 -5.5,0 -9.972,-4.461 -9.972,-9.98 0,-5.496 4.472,-9.973 9.972,-9.973 5.516,0 9.989,4.477 9.989,9.973"
         style="fill:#34373e;fill-opacity:1;fill-rule:nonzero;stroke:none"
         id="path28" />
      <path
         d="m 184.613,102.188 c 5.508,0 10,4.464 10,9.98 0,5.508 -4.492,9.973 -10,9.973 -5.476,0 -9.957,-4.465 -9.957,-9.973 0,-5.516 4.481,-9.98 9.957,-9.98"
         style="fill:#34373e;fill-opacity:1;fill-rule:nonzero;stroke:none"
         id="path30" />
      <path
         d="m 256.234,194.504 c -5.504,0 -9.98,-4.484 -9.98,-9.981 0,-5.507 4.476,-9.972 9.98,-9.972 5.504,0 9.981,4.465 9.981,9.972 0,5.497 -4.477,9.981 -9.981,9.981"
         style="fill:#34373e;fill-opacity:1;fill-rule:nonzero;stroke:none"
         id="path32" />
      <path
         d="m 255.199,161.16 c -5.488,0 -9.965,-4.469 -9.965,-9.961 0,-5.508 4.477,-9.969 9.965,-9.969 5.504,0 10,4.461 10,9.969 0,5.492 -4.496,9.961 -10,9.961"
         style="fill:#34373e;fill-opacity:1;fill-rule:nonzero;stroke:none"
         id="path34" />
      <path
         d="m 278.531,176.191 c -5.504,0 -9.968,-4.48 -9.968,-9.992 0,-5.496 4.464,-9.961 9.968,-9.961 5.496,0 9.981,4.465 9.981,9.961 0,5.512 -4.485,9.992 -9.981,9.992"
         style="fill:#34373e;fill-opacity:1;fill-rule:nonzero;stroke:none"
         id="path36" />
      <path
         d="m 285.805,132.41 c 0,5.531 -4.473,10 -9.985,10 -5.476,0 -9.968,-4.469 -9.968,-10 0,-5.476 4.492,-9.937 9.968,-9.937 5.512,0 9.985,4.461 9.985,9.937"
         style="fill:#34373e;fill-opacity:1;fill-rule:nonzero;stroke:none"
         id="path38" />
      <path
         d="m 261.645,117.48 c 0,5.5 -4.477,9.961 -9.981,9.961 -5.504,0 -9.98,-4.461 -9.98,-9.961 0,-5.515 4.476,-9.968 9.98,-9.968 5.504,0 9.981,4.453 9.981,9.968"
         style="fill:#34373e;fill-opacity:1;fill-rule:nonzero;stroke:none"
         id="path40" />
      <path
         d="m 217.273,103.496 c 5.497,0 9.985,4.465 9.985,9.973 0,5.515 -4.488,9.976 -9.985,9.976 -5.5,0 -9.976,-4.461 -9.976,-9.976 0,-5.508 4.476,-9.973 9.976,-9.973"
         style="fill:#34373e;fill-opacity:1;fill-rule:nonzero;stroke:none"
         id="path42" />
      <path
         d="m 201.66,80.1484 c 5.492,0 9.981,4.4688 9.981,9.9688 0,5.5078 -4.489,9.9918 -9.981,9.9918 -5.504,0 -9.965,-4.484 -9.965,-9.9918 0,-5.5 4.461,-9.9688 9.965,-9.9688"
         style="fill:#34373e;fill-opacity:1;fill-rule:nonzero;stroke:none"
         id="path44" />
      <path
         d="m 184.492,55.3828 c 5.524,0 10.004,4.4727 10.004,9.9688 0,5.5 -4.48,9.9922 -10.004,9.9922 -5.484,0 -9.953,-4.4922 -9.953,-9.9922 0,-5.4961 4.469,-9.9688 9.953,-9.9688"
         style="fill:#34373e;fill-opacity:1;fill-rule:nonzero;stroke:none"
         id="path46" />
      <path
         d="m 242.953,135.652 c 0,5.493 -4.473,9.961 -9.984,9.961 -5.473,0 -9.965,-4.468 -9.965,-9.961 0,-5.496 4.492,-9.988 9.965,-9.988 5.511,0 9.984,4.492 9.984,9.988"
         style="fill:#34373e;fill-opacity:1;fill-rule:nonzero;stroke:none"
         id="path48" />
      <path
         d="m 301.898,157.922 c -5.496,0 -9.968,-4.453 -9.968,-9.953 0,-5.52 4.472,-9.981 9.968,-9.981 5.512,0 9.993,4.461 9.993,9.981 0,5.5 -4.481,9.953 -9.993,9.953"
         style="fill:#34373e;fill-opacity:1;fill-rule:nonzero;stroke:none"
         id="path50" />
      <path
         d="m 298.18,121.992 c -5.492,0 -9.973,-4.465 -9.973,-9.98 0,-5.496 4.481,-9.961 9.973,-9.961 5.508,0 9.968,4.465 9.968,9.961 0,5.515 -4.46,9.98 -9.968,9.98"
         style="fill:#34373e;fill-opacity:1;fill-rule:nonzero;stroke:none"
         id="path52" />
      <path
         d="m 322.73,100.535 c -5.507,0 -9.972,-4.4686 -9.972,-9.9764 0,-5.5078 4.465,-9.9727 9.972,-9.9727 5.5,0 9.985,4.4649 9.985,9.9727 0,5.5078 -4.485,9.9764 -9.985,9.9764"
         style="fill:#34373e;fill-opacity:1;fill-rule:nonzero;stroke:none"
         id="path54" />
      <path
         d="m 292.465,86.4922 c -5.488,0 -9.969,-4.4883 -9.969,-9.9766 0,-5.5078 4.481,-9.9843 9.969,-9.9843 5.523,0 9.996,4.4765 9.996,9.9843 0,5.4883 -4.473,9.9766 -9.996,9.9766"
         style="fill:#34373e;fill-opacity:1;fill-rule:nonzero;stroke:none"
         id="path56" />
      <path
         d="m 281.578,97.0039 c 0,5.5081 -4.488,10.0001 -9.992,10.0001 -5.496,0 -9.969,-4.492 -9.969,-10.0001 0,-5.5 4.473,-9.9609 9.969,-9.9609 5.504,0 9.992,4.4609 9.992,9.9609"
         style="fill:#34373e;fill-opacity:1;fill-rule:nonzero;stroke:none"
         id="path58" />
      <path
         d="m 256.758,60.4805 c 5.492,0 9.976,4.4687 9.976,9.9687 0,5.4961 -4.484,9.9922 -9.976,9.9922 -5.508,0 -9.965,-4.4961 -9.965,-9.9922 0,-5.5 4.457,-9.9687 9.965,-9.9687"
         style="fill:#34373e;fill-opacity:1;fill-rule:nonzero;stroke:none"
         id="path60" />
      <path
         d="m 220.527,56.7188 c 5.512,0 9.985,4.4648 9.985,9.9726 0,5.5156 -4.473,9.9805 -9.985,9.9805 -5.492,0 -9.964,-4.4649 -9.964,-9.9805 0,-5.5078 4.472,-9.9726 9.964,-9.9726"
         style="fill:#34373e;fill-opacity:1;fill-rule:nonzero;stroke:none"
         id="path62" />
      <path
         d="m 246.105,92.6289 c 0,5.4961 -4.48,9.9881 -9.976,9.9881 -5.504,0 -9.969,-4.492 -9.969,-9.9881 0,-5.4883 4.465,-9.9531 9.969,-9.9531 5.496,0 9.976,4.4648 9.976,9.9531"
         style="fill:#34373e;fill-opacity:1;fill-rule:nonzero;stroke:none"
         id="path64" />
      <path
         d="m 315.699,63.1367 c -5.496,0 -9.969,-4.4765 -9.969,-9.9726 0,-5.4961 4.473,-9.9727 9.969,-9.9727 5.508,0 9.992,4.4766 9.992,9.9727 0,5.4961 -4.484,9.9726 -9.992,9.9726"
         style="fill:#34373e;fill-opacity:1;fill-rule:nonzero;stroke:none"
         id="path66" />
      <path
         d="m 277.836,55.9453 c -5.496,0 -9.969,-4.4922 -9.969,-10 0,-5.4844 4.473,-9.9609 9.969,-9.9609 5.508,0 9.992,4.4765 9.992,9.9609 0,5.5078 -4.484,10 -9.992,10"
         style="fill:#34373e;fill-opacity:1;fill-rule:nonzero;stroke:none"
         id="path68" />
      <path
         d="m 261.488,26.875 c -5.492,0 -9.98,-4.4648 -9.98,-9.9727 0,-5.496 4.488,-9.96871 9.98,-9.96871 5.5,0 9.981,4.47271 9.981,9.96871 0,5.5079 -4.481,9.9727 -9.981,9.9727"
         style="fill:#34373e;fill-opacity:1;fill-rule:nonzero;stroke:none"
         id="path70" />
      <path
         d="m 240.191,51.8477 c -5.511,0 -9.992,-4.4766 -9.992,-9.9727 0,-5.4961 4.481,-9.9883 9.992,-9.9883 5.489,0 9.965,4.4922 9.965,9.9883 0,5.4961 -4.476,9.9727 -9.965,9.9727"
         style="fill:#34373e;fill-opacity:1;fill-rule:nonzero;stroke:none"
         id="path72" />
      <path
         d="m 222.871,21.8867 c -5.504,0 -9.965,-4.4765 -9.965,-9.9922 0,-5.49606 4.461,-9.96872 9.965,-9.96872 5.512,0 9.984,4.47266 9.984,9.96872 0,5.5157 -4.472,9.9922 -9.984,9.9922"
         style="fill:#34373e;fill-opacity:1;fill-rule:nonzero;stroke:none"
         id="path74" />
      <path
         d="m 202.574,49.3555 c -5.504,0 -9.969,-4.4844 -9.969,-9.9922 0,-5.4961 4.465,-9.961 9.969,-9.961 5.508,0 9.981,4.4649 9.981,9.961 0,5.5078 -4.473,9.9922 -9.981,9.9922"
         style="fill:#34373e;fill-opacity:1;fill-rule:nonzero;stroke:none"
         id="path76" />
      <path
         d="m 184.656,19.9492 c -5.5,0 -9.965,-4.4804 -9.965,-9.97654 C 174.691,4.46484 179.156,0 184.656,0 c 5.516,0 9.989,4.46484 9.989,9.97266 0,5.49614 -4.473,9.97654 -9.989,9.97654"
         style="fill:#34373e;fill-opacity:1;fill-rule:nonzero;stroke:none"
         id="path78" />
      <path
         d="m 165.52,49.3555 c -5.497,0 -9.973,-4.461 -9.973,-9.9922 0,-5.4961 4.476,-9.961 9.973,-9.961 5.503,0 9.992,4.4649 9.992,9.961 0,5.5312 -4.489,9.9922 -9.992,9.9922"
         style="fill:#34373e;fill-opacity:1;fill-rule:nonzero;stroke:none"
         id="path80" />
      <path
         d="m 145.484,21.7695 c -5.507,0 -9.964,-4.4726 -9.964,-9.9922 0,-5.47652 4.457,-9.95308 9.964,-9.95308 5.493,0 9.969,4.47656 9.969,9.95308 0,5.5196 -4.476,9.9922 -9.969,9.9922"
         style="fill:#34373e;fill-opacity:1;fill-rule:nonzero;stroke:none"
         id="path82" />
      <path
         d="m 107.883,26.9141 c -5.496,0 -9.9728,-4.4727 -9.9728,-9.9883 0,-5.5 4.4768,-9.97267 9.9728,-9.97267 5.508,0 9.992,4.47267 9.992,9.97267 0,5.5156 -4.484,9.9883 -9.992,9.9883"
         style="fill:#34373e;fill-opacity:1;fill-rule:nonzero;stroke:none"
         id="path84" />
      <path
         d="m 326.859,138.391 c -5.48,0 -9.957,-4.473 -9.957,-9.973 0,-5.516 4.477,-9.98 9.957,-9.98 5.52,0 9.981,4.464 9.981,9.98 0,5.5 -4.461,9.973 -9.981,9.973"
         style="fill:#34373e;fill-opacity:1;fill-rule:nonzero;stroke:none"
         id="path86" />
      <path
         d="m 351.82,117.82 c -5.488,0 -9.965,-4.468 -9.965,-9.968 0,-5.516 4.477,-9.9809 9.965,-9.9809 5.524,0 9.993,4.4649 9.993,9.9809 0,5.5 -4.469,9.968 -9.993,9.968"
         style="fill:#34373e;fill-opacity:1;fill-rule:nonzero;stroke:none"
         id="path88" />
      <path
         d="m 356.859,155.734 c -5.496,0 -9.964,-4.484 -9.964,-9.992 0,-5.5 4.468,-9.961 9.964,-9.961 5.508,0 9.981,4.461 9.981,9.961 0,5.508 -4.473,9.992 -9.981,9.992"
         style="fill:#34373e;fill-opacity:1;fill-rule:nonzero;stroke:none"
         id="path90" />
      <path
         d="m 329.145,175.523 c -5.508,0 -9.969,-4.476 -9.969,-9.988 0,-5.484 4.461,-9.961 9.969,-9.961 5.5,0 9.98,4.477 9.98,9.961 0,5.512 -4.48,9.988 -9.98,9.988"
         style="fill:#34373e;fill-opacity:1;fill-rule:nonzero;stroke:none"
         id="path92" />
      <path
         d="m 358.547,194.402 c -5.516,0 -9.961,-4.476 -9.961,-9.988 0,-5.496 4.445,-9.973 9.961,-9.973 5.492,0 9.973,4.477 9.973,9.973 0,5.512 -4.481,9.988 -9.973,9.988"
         style="fill:#34373e;fill-opacity:1;fill-rule:nonzero;stroke:none"
         id="path94" />
      <path
         d="m 329.125,212.434 c -5.488,0 -9.949,-4.481 -9.949,-9.993 0,-5.5 4.461,-9.968 9.949,-9.968 5.52,0 9.996,4.468 9.996,9.968 0,5.512 -4.476,9.993 -9.996,9.993"
         style="fill:#34373e;fill-opacity:1;fill-rule:nonzero;stroke:none"
         id="path96" />
      <path
         d="m 346.77,222.961 c 0,-5.5 4.464,-9.977 9.964,-9.977 5.508,0 9.989,4.477 9.989,9.977 0,5.508 -4.481,9.988 -9.989,9.988 -5.5,0 -9.964,-4.48 -9.964,-9.988"
         style="fill:#34373e;fill-opacity:1;fill-rule:nonzero;stroke:none"
         id="path98" />
      <path
         d="m 316.715,240.176 c 0,-5.496 4.461,-9.973 9.965,-9.973 5.504,0 9.976,4.477 9.976,9.973 0,5.5 -4.472,9.992 -9.976,9.992 -5.504,0 -9.965,-4.492 -9.965,-9.992"
         style="fill:#34373e;fill-opacity:1;fill-rule:nonzero;stroke:none"
         id="path100" />
      <path
         d="m 351.816,251.348 c 5.504,0 9.977,4.48 9.977,9.968 0,5.52 -4.473,9.993 -9.977,9.993 -5.503,0 -9.976,-4.473 -9.976,-9.993 0,-5.488 4.473,-9.968 9.976,-9.968"
         style="fill:#34373e;fill-opacity:1;fill-rule:nonzero;stroke:none"
         id="path102" />
      <path
         d="m 312.715,277.637 c 0,-5.489 4.457,-9.949 9.945,-9.949 5.52,0 9.992,4.46 9.992,9.949 0,5.519 -4.472,9.992 -9.992,9.992 -5.488,0 -9.945,-4.473 -9.945,-9.992"
         style="fill:#34373e;fill-opacity:1;fill-rule:nonzero;stroke:none"
         id="path104" />
      <path
         d="m 315.637,305.031 c 5.5,0 9.968,4.465 9.968,9.969 0,5.5 -4.468,9.973 -9.968,9.973 -5.516,0 -9.985,-4.473 -9.985,-9.973 0,-5.504 4.469,-9.969 9.985,-9.969"
         style="fill:#34373e;fill-opacity:1;fill-rule:nonzero;stroke:none"
         id="path106" />
      <path
         d="m 282.691,291.91 c 0,-5.504 4.473,-9.972 9.961,-9.972 5.496,0 9.989,4.468 9.989,9.972 0,5.504 -4.493,9.981 -9.989,9.981 -5.488,0 -9.961,-4.477 -9.961,-9.981"
         style="fill:#34373e;fill-opacity:1;fill-rule:nonzero;stroke:none"
         id="path108" />
      <path
         d="m 271.391,281.313 c -5.489,0 -9.961,-4.465 -9.961,-9.985 0,-5.488 4.472,-9.969 9.961,-9.969 5.519,0 10,4.481 10,9.969 0,5.52 -4.481,9.985 -10,9.985"
         style="fill:#34373e;fill-opacity:1;fill-rule:nonzero;stroke:none"
         id="path110" />
      <path
         d="m 241.625,251.008 c 0,-5.5 4.48,-9.969 9.992,-9.969 5.488,0 9.969,4.469 9.969,9.969 0,5.508 -4.481,9.988 -9.969,9.988 -5.512,0 -9.992,-4.48 -9.992,-9.988"
         style="fill:#34373e;fill-opacity:1;fill-rule:nonzero;stroke:none"
         id="path112" />
      <path
         d="m 236.266,285.715 c -5.508,0 -9.973,-4.469 -9.973,-9.988 0,-5.5 4.465,-9.954 9.973,-9.954 5.511,0 9.984,4.454 9.984,9.954 0,5.519 -4.473,9.988 -9.984,9.988"
         style="fill:#34373e;fill-opacity:1;fill-rule:nonzero;stroke:none"
         id="path114" />
      <path
         d="m 220.414,311.516 c -5.488,0 -9.969,-4.489 -9.969,-9.993 0,-5.507 4.481,-9.968 9.969,-9.968 5.508,0 9.981,4.461 9.981,9.968 0,5.504 -4.473,9.993 -9.981,9.993"
         style="fill:#34373e;fill-opacity:1;fill-rule:nonzero;stroke:none"
         id="path116" />
      <path
         d="m 201.793,288.422 c -5.5,0 -9.973,-4.465 -9.973,-9.984 0,-5.504 4.473,-9.969 9.973,-9.969 5.488,0 9.977,4.465 9.977,9.969 0,5.519 -4.489,9.984 -9.977,9.984"
         style="fill:#34373e;fill-opacity:1;fill-rule:nonzero;stroke:none"
         id="path118" />
      <path
         d="m 166.305,288.203 c -5.508,0 -9.965,-4.473 -9.965,-9.988 0,-5.5 4.457,-9.973 9.965,-9.973 5.492,0 9.98,4.473 9.98,9.973 0,5.515 -4.488,9.988 -9.98,9.988"
         style="fill:#34373e;fill-opacity:1;fill-rule:nonzero;stroke:none"
         id="path120" />
      <path
         d="m 151.285,264.785 c -5.484,0 -9.976,-4.48 -9.976,-9.98 0,-5.508 4.492,-9.969 9.976,-9.969 5.508,0 9.977,4.461 9.977,9.969 0,5.5 -4.469,9.98 -9.977,9.98"
         style="fill:#34373e;fill-opacity:1;fill-rule:nonzero;stroke:none"
         id="path122" />
      <path
         d="m 158.063,234.746 c 0,-5.488 4.457,-9.961 9.964,-9.961 5.496,0 9.985,4.473 9.985,9.961 0,5.52 -4.489,9.981 -9.985,9.981 -5.507,0 -9.964,-4.461 -9.964,-9.981"
         style="fill:#34373e;fill-opacity:1;fill-rule:nonzero;stroke:none"
         id="path124" />
      <path
         d="m 125.684,232.781 c 0,-5.511 4.472,-9.988 9.976,-9.988 5.508,0 9.977,4.477 9.977,9.988 0,5.5 -4.469,9.989 -9.977,9.989 -5.504,0 -9.976,-4.489 -9.976,-9.989"
         style="fill:#34373e;fill-opacity:1;fill-rule:nonzero;stroke:none"
         id="path126" />
      <path
         d="m 113.434,227.109 c -5.504,0 -9.973,-4.48 -9.973,-9.992 0,-5.496 4.469,-9.972 9.973,-9.972 5.511,0 9.972,4.476 9.972,9.972 0,5.512 -4.461,9.992 -9.972,9.992"
         style="fill:#34373e;fill-opacity:1;fill-rule:nonzero;stroke:none"
         id="path128" />
      <path
         d="m 90.0625,191.68 c 5.4922,0 9.9765,4.472 9.9765,9.972 0,5.493 -4.4843,9.993 -9.9765,9.993 -5.5117,0 -9.9648,-4.5 -9.9648,-9.993 0,-5.5 4.4531,-9.972 9.9648,-9.972"
         style="fill:#34373e;fill-opacity:1;fill-rule:nonzero;stroke:none"
         id="path130" />
      <path
         d="m 82.6055,236.016 c 0,-5.489 4.4804,-9.961 9.9726,-9.961 5.5117,0 9.9879,4.472 9.9879,9.961 0,5.515 -4.4762,9.98 -9.9879,9.98 -5.4922,0 -9.9726,-4.465 -9.9726,-9.98"
         style="fill:#34373e;fill-opacity:1;fill-rule:nonzero;stroke:none"
         id="path132" />
      <path
         d="m 56.6211,220.508 c 0,-5.496 4.4727,-9.973 9.9609,-9.973 5.5157,0 9.9922,4.477 9.9922,9.973 0,5.5 -4.4765,9.988 -9.9922,9.988 -5.4882,0 -9.9609,-4.488 -9.9609,-9.988"
         style="fill:#34373e;fill-opacity:1;fill-rule:nonzero;stroke:none"
         id="path134" />
      <path
         d="m 39.2578,192.672 c 5.5,0 9.9844,4.476 9.9844,9.957 0,5.523 -4.4844,9.988 -9.9844,9.988 -5.5039,0 -9.9726,-4.465 -9.9726,-9.988 0,-5.481 4.4687,-9.957 9.9726,-9.957"
         style="fill:#34373e;fill-opacity:1;fill-rule:nonzero;stroke:none"
         id="path136" />
      <path
         d="m 11.6641,213.059 c 5.5039,0 9.9882,4.492 9.9882,9.968 0,5.512 -4.4843,9.993 -9.9882,9.993 -5.50004,0 -9.96879,-4.481 -9.96879,-9.993 0,-5.476 4.46875,-9.968 9.96879,-9.968"
         style="fill:#34373e;fill-opacity:1;fill-rule:nonzero;stroke:none"
         id="path138" />
      <path
         d="m 41.8359,230.117 c 5.5079,0 9.9922,4.473 9.9922,9.961 0,5.52 -4.4843,10 -9.9922,10 -5.4921,0 -9.9492,-4.48 -9.9492,-10 0,-5.488 4.4571,-9.961 9.9492,-9.961"
         style="fill:#34373e;fill-opacity:1;fill-rule:nonzero;stroke:none"
         id="path140" />
      <path
         d="m 16.8398,271.461 c -5.4921,0 -9.9648,-4.469 -9.9648,-9.984 0,-5.504 4.4727,-9.973 9.9648,-9.973 5.4883,0 9.9805,4.469 9.9805,9.973 0,5.515 -4.4922,9.984 -9.9805,9.984"
         style="fill:#34373e;fill-opacity:1;fill-rule:nonzero;stroke:none"
         id="path142" />
      <path
         d="m 46.1797,267.637 c 5.5117,0 9.9883,4.468 9.9883,9.972 0,5.516 -4.4766,9.985 -9.9883,9.985 -5.4844,0 -9.9453,-4.469 -9.9453,-9.985 0,-5.504 4.4609,-9.972 9.9453,-9.972"
         style="fill:#34373e;fill-opacity:1;fill-rule:nonzero;stroke:none"
         id="path144" />
      <path
         d="m 70.3516,266.637 c -5.4883,0 -9.961,-4.489 -9.961,-9.985 0,-5.504 4.4727,-9.992 9.961,-9.992 5.5234,0 10,4.488 10,9.992 0,5.496 -4.4766,9.985 -10,9.985"
         style="fill:#34373e;fill-opacity:1;fill-rule:nonzero;stroke:none"
         id="path146" />
      <path
         d="m 87.3438,271.426 c 0,-5.496 4.4726,-9.973 9.9726,-9.973 5.5116,0 9.9886,4.477 9.9886,9.973 0,5.504 -4.477,9.992 -9.9886,9.992 -5.5,0 -9.9726,-4.488 -9.9726,-9.992"
         style="fill:#34373e;fill-opacity:1;fill-rule:nonzero;stroke:none"
         id="path148" />
      <path
         d="m 106.855,250.977 c 0,-5.489 4.477,-9.969 9.969,-9.969 5.516,0 9.996,4.48 9.996,9.969 0,5.503 -4.48,9.992 -9.996,9.992 -5.492,0 -9.969,-4.489 -9.969,-9.992"
         style="fill:#34373e;fill-opacity:1;fill-rule:nonzero;stroke:none"
         id="path150" />
      <path
         d="m 65.3438,174.602 c 5.496,0 9.9687,4.476 9.9687,9.945 0,5.516 -4.4727,9.996 -9.9687,9.996 -5.4961,0 -9.9727,-4.48 -9.9727,-9.996 0,-5.469 4.4766,-9.945 9.9727,-9.945"
         style="fill:#34373e;fill-opacity:1;fill-rule:nonzero;stroke:none"
         id="path152" />
      <path
         d="m 184.684,265.957 c -5.496,0 -9.973,-4.473 -9.973,-9.984 0,-5.504 4.477,-9.977 9.973,-9.977 5.496,0 9.996,4.473 9.996,9.977 0,5.511 -4.5,9.984 -9.996,9.984"
         style="fill:#34373e;fill-opacity:1;fill-rule:nonzero;stroke:none"
         id="path154" />
      <path
         d="m 256.695,308.145 c -5.504,0 -9.992,-4.489 -9.992,-9.989 0,-5.5 4.488,-9.972 9.992,-9.972 5.489,0 9.969,4.472 9.969,9.972 0,5.5 -4.48,9.989 -9.969,9.989"
         style="fill:#34373e;fill-opacity:1;fill-rule:nonzero;stroke:none"
         id="path156" />
      <path
         d="m 267.883,322.719 c 0,-5.5 4.465,-9.973 9.969,-9.973 5.492,0 9.976,4.473 9.976,9.973 0,5.5 -4.484,9.988 -9.976,9.988 -5.504,0 -9.969,-4.488 -9.969,-9.988"
         style="fill:#34373e;fill-opacity:1;fill-rule:nonzero;stroke:none"
         id="path158" />
      <path
         d="m 240.273,316.676 c 5.508,0 9.977,4.469 9.977,9.969 0,5.503 -4.469,9.988 -9.977,9.988 -5.503,0 -9.968,-4.485 -9.968,-9.988 0,-5.5 4.465,-9.969 9.968,-9.969"
         style="fill:#34373e;fill-opacity:1;fill-rule:nonzero;stroke:none"
         id="path160" />
      <path
         d="m 261.547,341.66 c 5.516,0 9.98,4.469 9.98,9.953 0,5.52 -4.464,10.004 -9.98,10.004 -5.488,0 -9.965,-4.484 -9.965,-10.004 0,-5.484 4.477,-9.953 9.965,-9.953"
         style="fill:#34373e;fill-opacity:1;fill-rule:nonzero;stroke:none"
         id="path162" />
      <path
         d="m 222.953,346.535 c 5.504,0 9.973,4.465 9.973,9.969 0,5.523 -4.469,9.992 -9.973,9.992 -5.508,0 -9.98,-4.469 -9.98,-9.992 0,-5.504 4.472,-9.969 9.98,-9.969"
         style="fill:#34373e;fill-opacity:1;fill-rule:nonzero;stroke:none"
         id="path164" />
      <path
         d="m 184.535,348.547 c 5.52,0 9.992,4.473 9.992,9.973 0,5.5 -4.472,9.988 -9.992,9.988 -5.472,0 -9.957,-4.488 -9.957,-9.988 0,-5.5 4.485,-9.973 9.957,-9.973"
         style="fill:#34373e;fill-opacity:1;fill-rule:nonzero;stroke:none"
         id="path166" />
      <path
         d="m 145.422,346.637 c 5.484,0 9.973,4.488 9.973,9.968 0,5.52 -4.489,9.993 -9.973,9.993 -5.516,0 -9.992,-4.473 -9.992,-9.993 0,-5.48 4.476,-9.968 9.992,-9.968"
         style="fill:#34373e;fill-opacity:1;fill-rule:nonzero;stroke:none"
         id="path168" />
      <path
         d="m 107.848,341.559 c 5.515,0 9.984,4.468 9.984,9.968 0,5.504 -4.469,9.993 -9.984,9.993 -5.504,0 -9.973,-4.489 -9.973,-9.993 0,-5.5 4.469,-9.968 9.973,-9.968"
         style="fill:#34373e;fill-opacity:1;fill-rule:nonzero;stroke:none"
         id="path170" />
      <path
         d="m 165.25,319.027 c 5.508,0 9.969,4.485 9.969,9.969 0,5.5 -4.461,9.988 -9.969,9.988 -5.504,0 -9.969,-4.488 -9.969,-9.988 0,-5.484 4.465,-9.969 9.969,-9.969"
         style="fill:#34373e;fill-opacity:1;fill-rule:nonzero;stroke:none"
         id="path172" />
      <path
         d="m 128.262,316.574 c 5.504,0 9.992,4.465 9.992,9.969 0,5.5 -4.488,9.984 -9.992,9.984 -5.496,0 -9.973,-4.484 -9.973,-9.984 0,-5.504 4.477,-9.969 9.973,-9.969"
         style="fill:#34373e;fill-opacity:1;fill-rule:nonzero;stroke:none"
         id="path174" />
      <path
         d="m 111.902,308.008 c -5.496,0 -9.964,-4.469 -9.964,-9.969 0,-5.504 4.468,-9.992 9.964,-9.992 5.5,0 9.973,4.488 9.973,9.992 0,5.5 -4.473,9.969 -9.973,9.969"
         style="fill:#34373e;fill-opacity:1;fill-rule:nonzero;stroke:none"
         id="path176" />
      <path
         d="m 75.8438,281.855 c 5.496,0 9.9765,4.469 9.9765,9.973 0,5.492 -4.4805,9.985 -9.9765,9.985 -5.5118,0 -9.9649,-4.493 -9.9649,-9.985 0,-5.504 4.4531,-9.973 9.9649,-9.973"
         style="fill:#34373e;fill-opacity:1;fill-rule:nonzero;stroke:none"
         id="path178" />
      <path
         d="m 54.7461,305.18 c 5.5117,0 9.9883,4.468 9.9883,9.972 0,5.504 -4.4766,9.985 -9.9883,9.985 -5.5,0 -9.9688,-4.481 -9.9688,-9.985 0,-5.504 4.4688,-9.972 9.9688,-9.972"
         style="fill:#34373e;fill-opacity:1;fill-rule:nonzero;stroke:none"
         id="path180" />
      <path
         d="m 90.8984,312.613 c 5.5157,0 9.9926,4.469 9.9926,9.969 0,5.496 -4.4769,9.969 -9.9926,9.969 -5.4961,0 -9.9726,-4.473 -9.9726,-9.969 0,-5.5 4.4765,-9.969 9.9726,-9.969"
         style="fill:#34373e;fill-opacity:1;fill-rule:nonzero;stroke:none"
         id="path182" />
      <path
         d="m 122.395,275.859 c 0,-5.496 4.492,-9.968 9.972,-9.968 5.508,0 9.977,4.472 9.977,9.968 0,5.504 -4.469,9.993 -9.977,9.993 -5.48,0 -9.972,-4.489 -9.972,-9.993"
         style="fill:#34373e;fill-opacity:1;fill-rule:nonzero;stroke:none"
         id="path184" />
      <path
         d="m 147.832,311.645 c -5.508,0 -9.965,-4.485 -9.965,-9.985 0,-5.504 4.457,-9.969 9.965,-9.969 5.484,0 9.977,4.465 9.977,9.969 0,5.5 -4.493,9.985 -9.977,9.985"
         style="fill:#34373e;fill-opacity:1;fill-rule:nonzero;stroke:none"
         id="path186" />
      <path
         d="m 202.504,319.043 c 5.508,0 9.992,4.469 9.992,9.953 0,5.52 -4.484,10.008 -9.992,10.008 -5.5,0 -9.969,-4.488 -9.969,-10.008 0,-5.484 4.469,-9.953 9.969,-9.953"
         style="fill:#34373e;fill-opacity:1;fill-rule:nonzero;stroke:none"
         id="path188" />
      <path
         d="m 184.594,313.168 c -5.492,0 -9.961,-4.484 -9.961,-9.984 0,-5.504 4.469,-9.969 9.961,-9.969 5.511,0 9.992,4.465 9.992,9.969 0,5.5 -4.481,9.984 -9.992,9.984"
         style="fill:#34373e;fill-opacity:1;fill-rule:nonzero;stroke:none"
         id="path190" />
      <path
         d="m 242.613,232.902 c 0,5.496 -4.472,9.969 -9.976,9.969 -5.504,0 -9.965,-4.473 -9.965,-9.969 0,-5.507 4.461,-9.992 9.965,-9.992 5.504,0 9.976,4.485 9.976,9.992"
         style="fill:#34373e;fill-opacity:1;fill-rule:nonzero;stroke:none"
         id="path192" />
      <path
         d="m 215.93,225.676 c -5.485,0 -9.95,-4.477 -9.95,-9.992 0,-5.493 4.465,-9.946 9.95,-9.946 5.5,0 9.988,4.453 9.988,9.946 0,5.515 -4.488,9.992 -9.988,9.992"
         style="fill:#34373e;fill-opacity:1;fill-rule:nonzero;stroke:none"
         id="path194" />
      <path
         d="m 190.32,235.188 c 0,-5.508 4.485,-9.969 9.969,-9.969 5.512,0 9.984,4.461 9.984,9.969 0,5.496 -4.472,9.98 -9.984,9.98 -5.484,0 -9.969,-4.484 -9.969,-9.98"
         style="fill:#34373e;fill-opacity:1;fill-rule:nonzero;stroke:none"
         id="path196" />
      <path
         d="m 184.527,226.328 c -5.5,0 -9.961,-4.465 -9.961,-9.969 0,-5.5 4.461,-9.98 9.961,-9.98 5.5,0 9.969,4.48 9.969,9.98 0,5.504 -4.469,9.969 -9.969,9.969"
         style="fill:#34373e;fill-opacity:1;fill-rule:nonzero;stroke:none"
         id="path198" />
      <path
         d="m 158.887,199.578 c 0,-5.496 4.465,-9.961 9.965,-9.961 5.511,0 9.98,4.465 9.98,9.961 0,5.512 -4.469,9.992 -9.98,9.992 -5.5,0 -9.965,-4.48 -9.965,-9.992"
         style="fill:#34373e;fill-opacity:1;fill-rule:nonzero;stroke:none"
         id="path200" />
      <path
         d="m 152.891,225.488 c -5.493,0 -9.961,-4.472 -9.961,-9.992 0,-5.484 4.468,-9.969 9.961,-9.969 5.507,0 9.996,4.485 9.996,9.969 0,5.52 -4.489,9.992 -9.996,9.992"
         style="fill:#34373e;fill-opacity:1;fill-rule:nonzero;stroke:none"
         id="path202" />
      <path
         d="m 151.98,174.391 c 5.504,0 10.008,4.476 10.008,9.972 0,5.508 -4.504,9.992 -10.008,9.992 -5.503,0 -9.972,-4.484 -9.972,-9.992 0,-5.496 4.469,-9.972 9.972,-9.972"
         style="fill:#34373e;fill-opacity:1;fill-rule:nonzero;stroke:none"
         id="path204" />
      <path
         d="m 133.34,189.949 c 5.504,0 9.973,4.477 9.973,9.973 0,5.5 -4.469,9.988 -9.973,9.988 -5.496,0 -9.973,-4.488 -9.973,-9.988 0,-5.496 4.477,-9.973 9.973,-9.973"
         style="fill:#34373e;fill-opacity:1;fill-rule:nonzero;stroke:none"
         id="path206" />
      <path
         d="m 133.422,157.961 c 5.504,0 9.992,4.473 9.992,9.961 0,5.508 -4.488,9.98 -9.992,9.98 -5.492,0 -9.961,-4.472 -9.961,-9.98 0,-5.488 4.469,-9.961 9.961,-9.961"
         style="fill:#34373e;fill-opacity:1;fill-rule:nonzero;stroke:none"
         id="path208" />
      <path
         d="m 112.344,174.617 c 5.488,0 9.976,4.485 9.976,9.985 0,5.507 -4.488,9.968 -9.976,9.968 -5.512,0 -9.981,-4.461 -9.981,-9.968 0,-5.5 4.469,-9.985 9.981,-9.985"
         style="fill:#34373e;fill-opacity:1;fill-rule:nonzero;stroke:none"
         id="path210" />
      <path
         d="m 113.941,141.027 c 5.485,0 9.969,4.461 9.969,9.969 0,5.52 -4.484,9.973 -9.969,9.973 -5.523,0 -9.976,-4.453 -9.976,-9.973 0,-5.508 4.453,-9.969 9.976,-9.969"
         style="fill:#34373e;fill-opacity:1;fill-rule:nonzero;stroke:none"
         id="path212" />
      <path
         d="m 90.0703,156.301 c 5.5156,0 9.9687,4.472 9.9687,9.976 0,5.5 -4.4531,9.985 -9.9687,9.985 -5.5,0 -9.9687,-4.485 -9.9687,-9.985 0,-5.504 4.4687,-9.976 9.9687,-9.976"
         style="fill:#34373e;fill-opacity:1;fill-rule:nonzero;stroke:none"
         id="path214" />
      <path
         d="m 92.8438,122.078 c 5.5039,0 9.9842,4.477 9.9842,9.945 0,5.536 -4.4803,10.02 -9.9842,10.02 -5.5,0 -9.9727,-4.484 -9.9727,-10.02 0,-5.468 4.4727,-9.945 9.9727,-9.945"
         style="fill:#34373e;fill-opacity:1;fill-rule:nonzero;stroke:none"
         id="path216" />
      <path
         d="m 70.3906,101.73 c 5.5,0 9.9922,4.469 9.9922,9.969 0,5.508 -4.4922,9.992 -9.9922,9.992 -5.4883,0 -9.9726,-4.484 -9.9726,-9.992 0,-5.5 4.4843,-9.969 9.9726,-9.969"
         style="fill:#34373e;fill-opacity:1;fill-rule:nonzero;stroke:none"
         id="path218" />
      <path
         d="m 51.6563,128.203 c 0,5.508 -4.4727,9.988 -9.9766,9.988 -5.5078,0 -9.9766,-4.48 -9.9766,-9.988 0,-5.5 4.4688,-9.961 9.9766,-9.961 5.5039,0 9.9766,4.461 9.9766,9.961"
         style="fill:#34373e;fill-opacity:1;fill-rule:nonzero;stroke:none"
         id="path220" />
      <path
         d="m 21.7266,145.527 c 0,5.52 -4.4766,9.969 -9.9883,9.969 -5.50002,0 -9.97658,-4.449 -9.97658,-9.969 0,-5.5 4.47656,-9.961 9.97658,-9.961 5.5117,0 9.9883,4.461 9.9883,9.961"
         style="fill:#34373e;fill-opacity:1;fill-rule:nonzero;stroke:none"
         id="path222" />
      <path
         d="m 39.2578,155.422 c 5.5,0 9.9844,4.473 9.9844,9.98 0,5.489 -4.4844,9.981 -9.9844,9.981 -5.5039,0 -9.9726,-4.492 -9.9726,-9.981 0,-5.507 4.4687,-9.98 9.9726,-9.98"
         style="fill:#34373e;fill-opacity:1;fill-rule:nonzero;stroke:none"
         id="path224" />
      <path
         d="m 9.96875,174.574 c 5.50395,0 9.99215,4.481 9.99215,9.969 0,5.496 -4.4882,9.98 -9.99215,9.98 C 4.48828,194.523 0,190.039 0,184.543 c 0,-5.488 4.48828,-9.969 9.96875,-9.969"
         style="fill:#34373e;fill-opacity:1;fill-rule:nonzero;stroke:none"
         id="path226" />
      <path
         d="m 66.6406,138.098 c 5.4883,0 9.9688,4.461 9.9688,9.968 0,5.52 -4.4805,9.969 -9.9688,9.969 -5.5078,0 -9.9648,-4.449 -9.9648,-9.969 0,-5.507 4.457,-9.968 9.9648,-9.968"
         style="fill:#34373e;fill-opacity:1;fill-rule:nonzero;stroke:none"
         id="path228" />
      <path
         d="m 16.7188,117.859 c -5.5,0 -9.96099,-4.492 -9.96099,-9.976 0,-5.512 4.46099,-9.9728 9.96099,-9.9728 5.5156,0 9.9921,4.4608 9.9921,9.9728 0,5.484 -4.4765,9.976 -9.9921,9.976"
         style="fill:#34373e;fill-opacity:1;fill-rule:nonzero;stroke:none"
         id="path230" />
      <path
         d="m 55.8438,90.4883 c 0,5.4961 -4.4727,9.9917 -9.9844,9.9917 -5.5039,0 -9.9688,-4.4956 -9.9688,-9.9917 0,-5.5 4.4649,-9.9688 9.9688,-9.9688 5.5117,0 9.9844,4.4688 9.9844,9.9688"
         style="fill:#34373e;fill-opacity:1;fill-rule:nonzero;stroke:none"
         id="path232" />
      <path
         d="m 178.832,168.527 c 0,5.496 -4.469,9.981 -9.98,9.981 -5.5,0 -9.965,-4.485 -9.965,-9.981 0,-5.507 4.465,-9.98 9.965,-9.98 5.511,0 9.98,4.473 9.98,9.98"
         style="fill:#34373e;fill-opacity:1;fill-rule:nonzero;stroke:none"
         id="path234" />
      <path
         d="m 184.492,142.246 c 5.504,0 9.996,4.465 9.996,9.973 0,5.484 -4.492,9.976 -9.996,9.976 -5.492,0 -9.972,-4.492 -9.972,-9.976 0,-5.508 4.48,-9.973 9.972,-9.973"
         style="fill:#34373e;fill-opacity:1;fill-rule:nonzero;stroke:none"
         id="path236" />
      <path
         d="m 177.926,133.34 c 0,5.519 -4.485,9.98 -9.988,9.98 -5.5,0 -9.977,-4.461 -9.977,-9.98 0,-5.496 4.477,-9.973 9.977,-9.973 5.503,0 9.988,4.477 9.988,9.973"
         style="fill:#34373e;fill-opacity:1;fill-rule:nonzero;stroke:none"
         id="path238" />
      <path
         d="m 151.387,103.496 c 5.5,0 9.976,4.465 9.976,9.973 0,5.515 -4.476,9.976 -9.976,9.976 -5.512,0 -9.981,-4.461 -9.981,-9.976 0,-5.508 4.469,-9.973 9.981,-9.973"
         style="fill:#34373e;fill-opacity:1;fill-rule:nonzero;stroke:none"
         id="path240" />
      <path
         d="m 166.465,80.0273 c 5.504,0 9.973,4.4961 9.973,9.9727 0,5.5195 -4.469,10.012 -9.973,10.012 -5.492,0 -9.973,-4.4925 -9.973,-10.012 0,-5.4766 4.481,-9.9727 9.973,-9.9727"
         style="fill:#34373e;fill-opacity:1;fill-rule:nonzero;stroke:none"
         id="path242" />
      <path
         d="m 147.965,56.8086 c 5.504,0 9.984,4.4687 9.984,9.9609 0,5.5078 -4.48,10 -9.984,10 -5.504,0 -9.969,-4.4922 -9.969,-10 0,-5.4922 4.465,-9.9609 9.969,-9.9609"
         style="fill:#34373e;fill-opacity:1;fill-rule:nonzero;stroke:none"
         id="path244" />
      <path
         d="m 111.648,60.5742 c 5.52,0 9.985,4.4766 9.985,9.9727 0,5.5273 -4.465,9.9883 -9.985,9.9883 -5.496,0 -9.964,-4.461 -9.964,-9.9883 0,-5.4961 4.468,-9.9727 9.964,-9.9727"
         style="fill:#34373e;fill-opacity:1;fill-rule:nonzero;stroke:none"
         id="path246" />
      <path
         d="m 97.457,87.1016 c 5.496,0 9.977,4.4687 9.977,9.9765 0,5.4879 -4.481,9.9849 -9.977,9.9849 -5.5039,0 -9.9687,-4.497 -9.9687,-9.9849 0,-5.5078 4.4648,-9.9765 9.9687,-9.9765"
         style="fill:#34373e;fill-opacity:1;fill-rule:nonzero;stroke:none"
         id="path248" />
      <path
         d="m 132.348,82.7539 c 5.496,0 9.972,4.4649 9.972,9.9727 0,5.5078 -4.476,9.9764 -9.972,9.9764 -5.512,0 -9.969,-4.4686 -9.969,-9.9764 0,-5.5078 4.457,-9.9727 9.969,-9.9727"
         style="fill:#34373e;fill-opacity:1;fill-rule:nonzero;stroke:none"
         id="path250" />
      <path
         d="m 126.891,117.551 c 0,5.515 -4.489,10 -9.977,10 -5.508,0 -9.98,-4.485 -9.98,-10 0,-5.488 4.472,-9.953 9.98,-9.953 5.488,0 9.977,4.465 9.977,9.953"
         style="fill:#34373e;fill-opacity:1;fill-rule:nonzero;stroke:none"
         id="path252" />
      <path
         d="m 135.461,125.691 c 5.516,0 9.984,4.485 9.984,9.985 0,5.496 -4.468,9.988 -9.984,9.988 -5.5,0 -9.969,-4.492 -9.969,-9.988 0,-5.5 4.469,-9.985 9.969,-9.985"
         style="fill:#34373e;fill-opacity:1;fill-rule:nonzero;stroke:none"
         id="path254" />
      <path
         d="m 152.871,142.871 c 5.512,0 9.981,4.465 9.981,9.961 0,5.496 -4.469,9.988 -9.981,9.988 -5.484,0 -9.965,-4.492 -9.965,-9.988 0,-5.496 4.481,-9.961 9.965,-9.961"
         style="fill:#34373e;fill-opacity:1;fill-rule:nonzero;stroke:none"
         id="path256" />
      <path
         d="m 85.7461,76.4922 c 0,5.5 -4.4961,9.9922 -9.9922,9.9922 -5.4961,0 -9.9726,-4.4922 -9.9726,-9.9922 0,-5.4844 4.4765,-9.9766 9.9726,-9.9766 5.4961,0 9.9922,4.4922 9.9922,9.9766"
         style="fill:#34373e;fill-opacity:1;fill-rule:nonzero;stroke:none"
         id="path258" />
      <path
         d="m 90.6016,55.9453 c -5.4883,0 -9.9649,-4.4922 -9.9649,-10 0,-5.4844 4.4766,-9.9765 9.9649,-9.9765 5.5,0 9.9844,4.4921 9.9844,9.9765 0,5.5078 -4.4844,10 -9.9844,10"
         style="fill:#34373e;fill-opacity:1;fill-rule:nonzero;stroke:none"
         id="path260" />
      <path
         d="m 54.4922,63.1836 c -5.5117,0 -9.9883,-4.4609 -9.9883,-9.9688 0,-5.5195 4.4766,-9.9804 9.9883,-9.9804 5.4883,0 9.9726,4.4609 9.9726,9.9804 0,5.5079 -4.4843,9.9688 -9.9726,9.9688"
         style="fill:#34373e;fill-opacity:1;fill-rule:nonzero;stroke:none"
         id="path262" />
      <path
         d="m 128.152,51.8242 c -5.507,0 -9.968,-4.4687 -9.968,-9.9687 0,-5.4961 4.461,-9.9688 9.968,-9.9688 5.5,0 9.977,4.4727 9.977,9.9688 0,5.5 -4.477,9.9687 -9.977,9.9687"
         style="fill:#34373e;fill-opacity:1;fill-rule:nonzero;stroke:none"
         id="path264" />
      <path
         d="m 217.301,264.688 c -5.481,0 -9.973,-4.485 -9.973,-9.985 0,-5.504 4.492,-9.976 9.973,-9.976 5.512,0 9.988,4.472 9.988,9.976 0,5.5 -4.476,9.985 -9.988,9.985"
         style="fill:#34373e;fill-opacity:1;fill-rule:nonzero;stroke:none"
         id="path266" />
      <path
         d="m 287.934,256.379 c 0,-5.5 4.464,-9.973 9.972,-9.973 5.508,0 9.985,4.473 9.985,9.973 0,5.5 -4.477,9.988 -9.985,9.988 -5.508,0 -9.972,-4.488 -9.972,-9.988"
         style="fill:#34373e;fill-opacity:1;fill-rule:nonzero;stroke:none"
         id="path268" />
      <path
         d="m 275.836,245.918 c -5.492,0 -9.984,-4.492 -9.984,-9.988 0,-5.5 4.492,-9.973 9.984,-9.973 5.496,0 9.969,4.473 9.969,9.973 0,5.496 -4.473,9.988 -9.969,9.988"
         style="fill:#34373e;fill-opacity:1;fill-rule:nonzero;stroke:none"
         id="path270" />
      <path
         d="m 301.672,210.566 c 5.5,0 9.973,4.473 9.973,9.969 0,5.512 -4.473,9.992 -9.973,9.992 -5.504,0 -9.969,-4.48 -9.969,-9.992 0,-5.496 4.465,-9.969 9.969,-9.969"
         style="fill:#34373e;fill-opacity:1;fill-rule:nonzero;stroke:none"
         id="path272" />
      <path
         d="m 303.227,194.566 c -5.493,0 -9.969,-4.503 -9.969,-9.996 0,-5.492 4.476,-9.968 9.969,-9.968 5.507,0 9.98,4.476 9.98,9.968 0,5.493 -4.473,9.996 -9.98,9.996"
         style="fill:#34373e;fill-opacity:1;fill-rule:nonzero;stroke:none"
         id="path274" />
      <path
         d="m 268.191,201.809 c 0,-5.493 4.469,-9.969 9.989,-9.969 5.496,0 9.968,4.476 9.968,9.969 0,5.515 -4.472,9.976 -9.968,9.976 -5.52,0 -9.989,-4.461 -9.989,-9.976"
         style="fill:#34373e;fill-opacity:1;fill-rule:nonzero;stroke:none"
         id="path276" />
      <path
         d="m 255.074,207.234 c 5.512,0 10,4.477 10,9.954 0,5.515 -4.488,9.992 -10,9.992 -5.488,0 -9.969,-4.477 -9.969,-9.992 0,-5.477 4.481,-9.954 9.969,-9.954"
         style="fill:#34373e;fill-opacity:1;fill-rule:nonzero;stroke:none"
         id="path278" />
      <path
         d="m 530.105,175.117 c 0,-9.465 -1.027,-13.113 -2.992,-15.965 -5.175,-8.078 -14.929,-8.207 -18.183,-8.207 -19.617,0 -20.395,12.871 -20.395,23.137 v 58.953 h -20.16 v -57.918 c 0,-8.719 0.273,-15.965 4.805,-23.105 8.855,-14.199 26,-16.27 35.367,-16.27 18.965,0 41.18,8.953 41.18,36.918 v 60.375 h -19.622 v -57.918"
         style="fill:#34373e;fill-opacity:1;fill-rule:nonzero;stroke:none"
         id="path280" />
      <path
         d="m 603.813,206.348 c -14.293,0 -19.477,-8.477 -21.313,-11.461 l -0.527,9.898 h -18.45 c 0.395,-4.57 0.395,-11.683 0.395,-11.972 v -53.926 h 19.379 v 38.476 c 0,5.078 1.156,8.317 2.316,10.024 2.09,3.117 5.867,5.078 9.996,5.078 4.961,0 7.95,-2.746 9.379,-5.586 1.032,-2.082 1.032,-4.438 1.032,-7.184 v -40.808 h 19.628 v 35.492 c 0,12.199 -0.382,15.594 -1.808,19.613 -1.688,4.567 -7.156,12.356 -20.027,12.356"
         style="fill:#34373e;fill-opacity:1;fill-rule:nonzero;stroke:none"
         id="path282" />
      <path
         d="m 640.281,138.898 h 19.223 v 65.758 h -19.223 v -65.758"
         style="fill:#34373e;fill-opacity:1;fill-rule:nonzero;stroke:none"
         id="path284" />
      <path
         d="m 704.07,159.973 -14.824,44.558 h -20.535 l 24.059,-65.644 h 21.308 l 23.649,65.644 H 719.141 L 704.07,159.973"
         style="fill:#34373e;fill-opacity:1;fill-rule:nonzero;stroke:none"
         id="path286" />
      <path
         d="m 760.445,178.926 c 0.395,7.652 3.891,14.687 12.364,14.687 11.156,0 11.425,-11.699 11.425,-14.687 z m 12.985,27.828 c -7.129,0 -13.375,-2.098 -18.43,-5.484 -11.047,-7.657 -13.668,-20.391 -13.668,-31.043 0,-10.539 2.473,-19.368 8.465,-25.625 6.863,-7.129 17.539,-8.164 23.148,-8.164 9.59,0 18.164,2.578 22.977,7.656 5.332,5.586 5.976,11.172 6.242,14.312 h -17.551 c -1.804,-7.293 -6.629,-9.109 -11.437,-9.109 -13.387,0 -13.387,13.254 -13.387,17.551 h 44.063 c 0.265,5.449 0.507,15.066 -3.895,24.043 -5.977,12.191 -17.148,15.863 -26.527,15.863"
         style="fill:#34373e;fill-opacity:1;fill-rule:nonzero;stroke:none"
         id="path288" />
      <path
         d="m 833.727,192.18 -0.391,12.605 h -18.059 c 0.383,-3.758 0.891,-13.262 0.891,-16.379 v -49.508 h 19.238 v 32.368 c 0,8.175 1.18,18.175 20.672,16.375 v 17.269 c -15.586,0.781 -19.863,-7.137 -22.351,-12.73"
         style="fill:#34373e;fill-opacity:1;fill-rule:nonzero;stroke:none"
         id="path290" />
      <path
         d="m 901.93,177.875 -11.817,3.242 c -5.722,1.578 -8.925,2.488 -8.925,6.91 0,4.024 3.855,6.496 9.042,6.496 3.008,0 8.868,-0.535 9.383,-7.785 h 17.532 c -0.52,13.098 -11.426,19.348 -24.942,19.348 -17.023,0 -28.711,-7.793 -28.711,-20.523 0,-13.368 11.289,-16.61 16.629,-18.192 l 11.953,-3.262 c 7.539,-2.086 9.094,-4.421 9.094,-7.398 0,-3.906 -3.254,-7.793 -10.156,-7.793 -8.047,0 -10.625,4.781 -10.891,8.965 h -18.086 c 0.16,-3.149 0.543,-8.332 4.824,-12.863 5.969,-6.258 14.036,-8.055 22.493,-8.055 20.41,0 30.136,11.289 30.136,22.598 0,8.984 -5.586,15.07 -17.558,18.312"
         style="fill:#34373e;fill-opacity:1;fill-rule:nonzero;stroke:none"
         id="path292" />
      <path
         d="m 931.715,138.898 h 19.219 v 65.758 h -19.219 v -65.758"
         style="fill:#34373e;fill-opacity:1;fill-rule:nonzero;stroke:none"
         id="path294" />
      <path
         d="m 993.355,227.52 -19.101,-3.497 v -19.902 h -12.617 v -12.723 h 12.617 v -35.996 c 0,-5.468 0,-17.675 19.375,-17.675 3.125,0 8.721,0.398 14.941,2.078 v 12.605 c -2.32,-0.262 -3.63,-0.398 -6.51,-0.398 -8.548,0 -8.548,3.801 -8.705,9.773 v 29.613 h 15.605 v 12.723 h -15.605 v 23.399"
         style="fill:#34373e;fill-opacity:1;fill-rule:nonzero;stroke:none"
         id="path296" />
      <path
         d="m 1055.54,153.586 c -1.8,-2.063 -4.67,-3.781 -8.17,-3.781 -6.35,0 -9.38,4.929 -9.38,9.375 0,7.804 8.84,11.695 21.2,10.664 0,-7.024 -0.24,-12.102 -3.65,-16.258 z m 21.85,28.328 c 0,3.004 -0.14,10.781 -4.54,16.113 -6.54,7.547 -17.94,8.473 -23.43,8.473 -6.21,0 -13.9,-1.074 -19.87,-5.355 -6.88,-4.954 -7.27,-11.946 -7.4,-15.465 h 18.87 c 0,1.554 0,3.644 1.42,5.843 1.67,2.469 4.56,3.653 7.27,3.653 1.8,0 6.87,-0.653 8.57,-5.457 0.77,-2.332 0.91,-4.414 0.91,-8.711 -6.36,0 -17.92,0 -25.99,-3.645 -12.06,-5.586 -13.91,-15.183 -13.91,-20.398 0,-5.188 1.85,-10.52 5.72,-14.438 2.59,-2.468 6.89,-5.183 16.37,-5.183 3.63,0 12.36,0 19.63,10.515 0,-1.941 0,-4.929 0.66,-8.972 h 17.41 c -1.18,5.488 -1.58,11.047 -1.58,16.633 l -0.11,26.394"
         style="fill:#34373e;fill-opacity:1;fill-rule:nonzero;stroke:none"
         id="path298" />
      <path
         d="m 1118.8,224.023 -19.11,-7.019 v -12.906 h -12.59 v -12.696 h 12.59 v -36 c 0,-5.468 0,-17.675 19.39,-17.675 3.13,0 8.68,0.398 14.93,2.078 v 12.605 c -2.34,-0.254 -3.64,-0.379 -6.5,-0.379 -8.55,0 -8.55,3.782 -8.71,9.754 v 29.617 h 15.6 v 12.696 h -15.6 v 19.925"
         style="fill:#34373e;fill-opacity:1;fill-rule:nonzero;stroke:none"
         id="path300" />
      <path
         d="m 1226.06,193.867 c -13.52,3.391 -20.39,4.922 -20.39,13.649 0,7.66 6.1,12.718 15.46,12.718 13.89,0 14.95,-11.058 15.19,-14.289 h 19.37 c 0,3.137 0,10.688 -5.33,17.422 -7.02,8.84 -18.58,11.059 -28.33,11.059 -26.13,0 -37.17,-13.645 -37.17,-29.133 0,-16.23 12.22,-22.852 34.58,-28.438 11.96,-2.871 17.82,-4.312 17.82,-12.609 0,-7.93 -6.88,-13.133 -17.82,-13.133 -17.29,0 -17.02,13.399 -17.02,17.84 h -20.53 c 0.13,-9.117 0.38,-32.281 36.38,-32.281 25.98,0 40.04,13.68 40.04,30.562 0,18.325 -16,22.739 -32.25,26.633"
         style="fill:#34373e;fill-opacity:1;fill-rule:nonzero;stroke:none"
         id="path302" />
      <path
         d="m 1296.74,224.023 -19.11,-7.019 v -12.906 h -12.59 v -12.696 h 12.59 v -36 c 0,-5.468 0,-17.675 19.39,-17.675 3.09,0 8.71,0.398 14.91,2.078 v 12.605 c -2.32,-0.254 -3.62,-0.379 -6.5,-0.379 -8.57,0 -8.57,3.782 -8.69,9.754 v 29.617 h 15.59 v 12.696 h -15.59 v 19.925"
         style="fill:#34373e;fill-opacity:1;fill-rule:nonzero;stroke:none"
         id="path304" />
      <path
         d="m 1384.05,161.238 v 43.293 h -19.77 v -33.148 c 0,-11.156 0,-20.406 -12.34,-20.406 -10.25,0 -10.25,8.711 -10.25,14.425 v 39.129 h -19.5 v -40.832 c 0,-3.219 0,-12.312 4.3,-17.664 3.64,-4.797 10.91,-8.816 19.75,-8.816 12.48,0 17.44,7.547 19.37,10.39 l 0.64,-8.722 h 18.72 c -0.28,1.816 -0.39,2.988 -0.53,4.804 0,1.719 -0.14,3.387 -0.39,17.547"
         style="fill:#34373e;fill-opacity:1;fill-rule:nonzero;stroke:none"
         id="path306" />
      <path
         d="m 1473.83,224.023 -19.11,-7.019 v -12.883 h -28.21 v 19.902 l -19.07,-7.019 v -12.883 h -12.63 v -12.723 h 12.63 v -35.996 c 0,-5.468 0,-17.668 19.36,-17.668 3.09,0 8.69,0.391 14.91,2.071 v 12.629 c -2.31,-0.286 -3.61,-0.422 -6.49,-0.422 -8.54,0 -8.54,3.801 -8.71,9.773 v 29.613 h 28.21 v -35.996 c 0,-5.468 0,-17.668 19.35,-17.668 3.15,0 8.74,0.391 14.97,2.071 v 12.629 c -2.34,-0.286 -3.63,-0.422 -6.51,-0.422 -8.56,0 -8.56,3.801 -8.7,9.773 v 29.613 h 15.61 v 12.723 h -15.61 v 19.902"
         style="fill:#34373e;fill-opacity:1;fill-rule:nonzero;stroke:none"
         id="path308" />
      <path
         d="m 1530.2,153.328 c -12.84,0 -12.84,15.863 -12.84,19.106 0,14.05 5.97,19.617 13.23,19.617 11.72,0 13.14,-12.61 13.14,-20.008 0,-2.852 0,-18.715 -13.53,-18.715 z m 14.31,42.231 c -1.95,2.879 -6.35,9.351 -18.32,9.351 -18.84,0 -28.06,-15.847 -28.06,-32.476 0,-15.864 8.84,-32.207 27.69,-32.207 4.67,0 11.54,0.867 17.65,8.945 -0.14,-10.02 -0.14,-12.363 -0.91,-15.606 -1.31,-5.839 -6.25,-8.554 -11.97,-8.554 -10.24,0 -11.15,7.136 -11.41,9.058 h -18.46 c 1.18,-19.859 19.5,-21.035 28.86,-21.035 12.59,0 32.73,2.324 32.73,26.516 v 48.476 c 0,6.606 0.41,11.043 0.92,16.246 h -18.07 l -0.65,-8.714"
         style="fill:#34373e;fill-opacity:1;fill-rule:nonzero;stroke:none"
         id="path310" />
      <path
         d="m 1610.04,153.586 c -1.8,-2.063 -4.66,-3.781 -8.19,-3.781 -6.38,0 -9.34,4.929 -9.34,9.375 0,7.804 8.83,11.695 21.18,10.664 0,-7.024 -0.28,-12.102 -3.65,-16.258 z m 21.84,28.328 c 0,3.004 -0.13,10.781 -4.56,16.113 -6.49,7.547 -17.92,8.473 -23.38,8.473 -6.22,0 -13.92,-1.074 -19.89,-5.355 -6.89,-4.954 -7.28,-11.946 -7.39,-15.465 h 18.81 c 0,1.554 0,3.644 1.46,5.843 1.69,2.469 4.52,3.653 7.27,3.653 1.81,0 6.9,-0.653 8.57,-5.457 0.8,-2.332 0.92,-4.414 0.92,-8.711 -6.38,0 -17.93,0 -25.99,-3.645 -12.12,-5.586 -13.91,-15.183 -13.91,-20.398 0,-5.188 1.79,-10.52 5.72,-14.438 2.59,-2.468 6.88,-5.183 16.37,-5.183 3.64,0 12.36,0 19.62,10.515 0,-1.941 0,-4.929 0.66,-8.972 h 17.42 c -1.18,5.488 -1.57,11.047 -1.57,16.633 l -0.13,26.394"
         style="fill:#34373e;fill-opacity:1;fill-rule:nonzero;stroke:none"
         id="path312" />
      <path
         d="m 1730.81,191.398 v 12.723 h -15.61 v 19.902 l -19.13,-7 v -12.902 h -12.6 l 0.02,-0.051 c -12.47,-0.457 -16.37,-6.793 -18.58,-11.914 l -0.39,12.61 h -18.08 c 0.39,-3.758 0.92,-13.243 0.92,-16.336 v -49.543 h 19.23 v 32.359 c 0,8.195 -0.3,20.152 20.65,20.152 h 8.83 v -35.996 c 0,-5.468 0,-17.668 19.38,-17.668 3.12,0 8.72,0.391 14.96,2.071 v 12.629 c -2.33,-0.286 -3.66,-0.403 -6.51,-0.403 -8.58,0 -8.58,3.782 -8.7,9.754 v 29.613 h 15.61"
         style="fill:#34373e;fill-opacity:1;fill-rule:nonzero;stroke:none"
         id="path314" />
      <path
         d="m 1037.21,213.906 c 5.24,0 9.46,4.246 9.46,9.446 0,5.203 -4.22,9.441 -9.46,9.441 -5.2,0 -9.44,-4.238 -9.44,-9.441 0,-5.2 4.24,-9.446 9.44,-9.446"
         style="fill:#34373e;fill-opacity:1;fill-rule:nonzero;stroke:none"
         id="path316" />
      <path
         d="m 1062.44,213.906 c 5.21,0 9.45,4.246 9.45,9.446 0,5.203 -4.24,9.441 -9.45,9.441 -5.2,0 -9.44,-4.238 -9.44,-9.441 0,-5.2 4.24,-9.446 9.44,-9.446"
         style="fill:#34373e;fill-opacity:1;fill-rule:nonzero;stroke:none"
         id="path318" />
      <path
         d="m 941.52,233.699 c -5.735,0 -10.344,-4.652 -10.344,-10.347 0,-5.704 4.609,-10.368 10.344,-10.368 5.722,0 10.351,4.664 10.351,10.368 0,5.695 -4.629,10.347 -10.351,10.347"
         style="fill:#34373e;fill-opacity:1;fill-rule:nonzero;stroke:none"
         id="path320" />
      <path
         d="m 649.895,233.699 c -5.715,0 -10.36,-4.652 -10.36,-10.347 0,-5.704 4.645,-10.368 10.36,-10.368 5.71,0 10.355,4.664 10.355,10.368 0,5.695 -4.645,10.347 -10.355,10.347"
         style="fill:#34373e;fill-opacity:1;fill-rule:nonzero;stroke:none"
         id="path322" />
    </g>
    <text
       xml:space="preserve"
       style="font-size:9px;line-height:1.25;font-family:'Sophia Nubian';-inkscape-font-specification:'Sophia Nubian';letter-spacing:0px;word-spacing:0px;stroke-width:0.75"
       x="46.010983"
       y="-2.6001596"
       id="text330"
       transform="scale(1,-1)"><tspan
         sodipodi:role="line"
         id="tspan328"
         style="stroke-width:0.75"
         x="46.010983"
         y="-2.6001596">Institut für Automatisierungstechnik</tspan><tspan
         sodipodi:role="line"
         style="stroke-width:0.75"
         x="46.010983"
         y="8.6498404"
         id="tspan332">und Softwaresysteme</tspan></text>
  </g>
</svg>
